<svg xmlns="http://www.w3.org/2000/svg" viewBox="0 0 512 512">
  <defs>
    <linearGradient id="grad1" x1="0%" y1="0%" x2="100%" y2="100%">
      <stop offset="0%" style="stop-color:#3b82f6;stop-opacity:1" />
      <stop offset="100%" style="stop-color:#2563eb;stop-opacity:1" />
    </linearGradient>
  </defs>
  <path d="M256 48C141.1 48 48 141.1 48 256s93.1 208 208 208 208-93.1 208-208S370.9 48 256 48zm0 398.9c-105.4 0-190.9-85.5-190.9-190.9S150.6 65.1 256 65.1s190.9 85.5 190.9 190.9-85.5 190.9-190.9 190.9z" fill="url(#grad1)" opacity="0.1"/>
  <path d="M365.3 162.5c-48.4-23.4-105.5-12.6-138.8 15.8-9.4 8-15.5 18-20.2 28.5-4.8 10.8-8.8 22.3-15.3 32.3-12.8 19.8-33.6 30.7-56.5 33.3-6.2.7-12.3 1-18.4.8 10.6 28.5 40.8 45.4 71.3 39.8 19.3-3.5 35.8-15.2 46.1-31.4 10.5-16.5 18.3-34.8 30.4-49.8 16.4-20.3 43.1-27.4 67.5-20.9 9.8 2.6 18.9 7.4 26.6 14.1 6.6-19.1 8.5-39.6 5.8-59.5-2.7-19.1-10.9-37.1-23.5-51.2l25 38.2z" fill="url(#grad1)"/>
  <path d="M196.2 263.8c4.2-9.6 10-18.9 18.1-25.8 26.6-22.6 78.4-33.1 113.3 2.1l-18.8 28.8c-18-10.4-37.3-8.8-54.8 1.6-9.8 5.8-17.5 14.9-24 24.3-6.1 8.8-10.7 18.3-15.9 27.6-3.8-19.3-10.1-38-17.9-58.6z" fill="#1e40af"/>
</svg>
